<?xml version="1.0" encoding="UTF-8" standalone="no"?>
<!DOCTYPE svg PUBLIC "-//W3C//DTD SVG 1.1//EN"
 "http://www.w3.org/Graphics/SVG/1.1/DTD/svg11.dtd">
<!-- Generated by graphviz version 6.0.2 (20221011.1828)
 -->
<!-- Pages: 1 -->
<svg width="822pt" height="476pt"
 viewBox="0.00 0.00 822.00 476.00" xmlns="http://www.w3.org/2000/svg" xmlns:xlink="http://www.w3.org/1999/xlink">
<g id="graph0" class="graph" transform="scale(1 1) rotate(0) translate(4 472)">
<polygon fill="white" stroke="none" points="-4,4 -4,-472 818,-472 818,4 -4,4"/>
<!-- [root] aws_cloudwatch_metric_alarm.terra_alarm (expand) -->
<g id="node1" class="node">
<title>[root] aws_cloudwatch_metric_alarm.terra_alarm (expand)</title>
<polygon fill="none" stroke="black" points="566,-324 310,-324 310,-288 566,-288 566,-324"/>
<text text-anchor="middle" x="438" y="-302.3" font-family="Times New Roman,serif" font-size="14.00">aws_cloudwatch_metric_alarm.terra_alarm</text>
</g>
<!-- [root] aws_instance.terra_ec2 (expand) -->
<g id="node3" class="node">
<title>[root] aws_instance.terra_ec2 (expand)</title>
<polygon fill="none" stroke="black" points="449,-180 303,-180 303,-144 449,-144 449,-180"/>
<text text-anchor="middle" x="376" y="-158.3" font-family="Times New Roman,serif" font-size="14.00">aws_instance.terra_ec2</text>
</g>
<!-- [root] aws_cloudwatch_metric_alarm.terra_alarm (expand)&#45;&gt;[root] aws_instance.terra_ec2 (expand) -->
<g id="edge1" class="edge">
<title>[root] aws_cloudwatch_metric_alarm.terra_alarm (expand)&#45;&gt;[root] aws_instance.terra_ec2 (expand)</title>
<path fill="none" stroke="black" d="M420.55,-287.83C411.62,-278.1 401.34,-265.26 395,-252 385.66,-232.46 380.87,-208.32 378.44,-190.12"/>
<polygon fill="black" stroke="black" points="381.92,-189.68 377.27,-180.16 374.96,-190.51 381.92,-189.68"/>
</g>
<!-- [root] aws_sns_topic.terra_sns_topic (expand) -->
<g id="node5" class="node">
<title>[root] aws_sns_topic.terra_sns_topic (expand)</title>
<polygon fill="none" stroke="black" points="595.5,-252 404.5,-252 404.5,-216 595.5,-216 595.5,-252"/>
<text text-anchor="middle" x="500" y="-230.3" font-family="Times New Roman,serif" font-size="14.00">aws_sns_topic.terra_sns_topic</text>
</g>
<!-- [root] aws_cloudwatch_metric_alarm.terra_alarm (expand)&#45;&gt;[root] aws_sns_topic.terra_sns_topic (expand) -->
<g id="edge2" class="edge">
<title>[root] aws_cloudwatch_metric_alarm.terra_alarm (expand)&#45;&gt;[root] aws_sns_topic.terra_sns_topic (expand)</title>
<path fill="none" stroke="black" d="M453.33,-287.7C460.76,-279.3 469.82,-269.07 477.98,-259.86"/>
<polygon fill="black" stroke="black" points="480.84,-261.91 484.85,-252.1 475.6,-257.27 480.84,-261.91"/>
</g>
<!-- [root] aws_ebs_volume.terra_ebs_volume (expand) -->
<g id="node2" class="node">
<title>[root] aws_ebs_volume.terra_ebs_volume (expand)</title>
<polygon fill="none" stroke="black" points="332.5,-252 115.5,-252 115.5,-216 332.5,-216 332.5,-252"/>
<text text-anchor="middle" x="224" y="-230.3" font-family="Times New Roman,serif" font-size="14.00">aws_ebs_volume.terra_ebs_volume</text>
</g>
<!-- [root] aws_ebs_volume.terra_ebs_volume (expand)&#45;&gt;[root] aws_instance.terra_ec2 (expand) -->
<g id="edge3" class="edge">
<title>[root] aws_ebs_volume.terra_ebs_volume (expand)&#45;&gt;[root] aws_instance.terra_ec2 (expand)</title>
<path fill="none" stroke="black" d="M261.18,-215.88C281.87,-206.35 307.8,-194.41 329.78,-184.28"/>
<polygon fill="black" stroke="black" points="331.32,-187.43 338.94,-180.07 328.39,-181.07 331.32,-187.43"/>
</g>
<!-- [root] aws_security_group.terra_sg (expand) -->
<g id="node4" class="node">
<title>[root] aws_security_group.terra_sg (expand)</title>
<polygon fill="none" stroke="black" points="468.5,-108 289.5,-108 289.5,-72 468.5,-72 468.5,-108"/>
<text text-anchor="middle" x="379" y="-86.3" font-family="Times New Roman,serif" font-size="14.00">aws_security_group.terra_sg</text>
</g>
<!-- [root] aws_instance.terra_ec2 (expand)&#45;&gt;[root] aws_security_group.terra_sg (expand) -->
<g id="edge4" class="edge">
<title>[root] aws_instance.terra_ec2 (expand)&#45;&gt;[root] aws_security_group.terra_sg (expand)</title>
<path fill="none" stroke="black" d="M376.74,-143.7C377.07,-135.98 377.47,-126.71 377.84,-118.11"/>
<polygon fill="black" stroke="black" points="381.34,-118.25 378.27,-108.1 374.34,-117.95 381.34,-118.25"/>
</g>
<!-- [root] provider[&quot;registry.terraform.io/hashicorp/aws&quot;] -->
<g id="node8" class="node">
<title>[root] provider[&quot;registry.terraform.io/hashicorp/aws&quot;]</title>
<polygon fill="none" stroke="black" points="438,-36 180.77,-18 438,0 695.23,-18 438,-36"/>
<text text-anchor="middle" x="438" y="-14.3" font-family="Times New Roman,serif" font-size="14.00">provider[&quot;registry.terraform.io/hashicorp/aws&quot;]</text>
</g>
<!-- [root] aws_security_group.terra_sg (expand)&#45;&gt;[root] provider[&quot;registry.terraform.io/hashicorp/aws&quot;] -->
<g id="edge5" class="edge">
<title>[root] aws_security_group.terra_sg (expand)&#45;&gt;[root] provider[&quot;registry.terraform.io/hashicorp/aws&quot;]</title>
<path fill="none" stroke="black" d="M393.58,-71.7C400.87,-63.05 409.8,-52.46 417.74,-43.04"/>
<polygon fill="black" stroke="black" points="420.62,-45.05 424.39,-35.14 415.27,-40.54 420.62,-45.05"/>
</g>
<!-- [root] aws_sns_topic.terra_sns_topic (expand)&#45;&gt;[root] provider[&quot;registry.terraform.io/hashicorp/aws&quot;] -->
<g id="edge6" class="edge">
<title>[root] aws_sns_topic.terra_sns_topic (expand)&#45;&gt;[root] provider[&quot;registry.terraform.io/hashicorp/aws&quot;]</title>
<path fill="none" stroke="black" d="M500.25,-215.84C500.11,-185.61 497.2,-121.39 477,-72 472.85,-61.85 466.33,-51.86 459.8,-43.33"/>
<polygon fill="black" stroke="black" points="462.35,-40.93 453.35,-35.35 456.91,-45.33 462.35,-40.93"/>
</g>
<!-- [root] aws_sns_topic_subscription.terra&#45;sub (expand) -->
<g id="node6" class="node">
<title>[root] aws_sns_topic_subscription.terra&#45;sub (expand)</title>
<polygon fill="none" stroke="black" points="814,-324 584,-324 584,-288 814,-288 814,-324"/>
<text text-anchor="middle" x="699" y="-302.3" font-family="Times New Roman,serif" font-size="14.00">aws_sns_topic_subscription.terra&#45;sub</text>
</g>
<!-- [root] aws_sns_topic_subscription.terra&#45;sub (expand)&#45;&gt;[root] aws_sns_topic.terra_sns_topic (expand) -->
<g id="edge7" class="edge">
<title>[root] aws_sns_topic_subscription.terra&#45;sub (expand)&#45;&gt;[root] aws_sns_topic.terra_sns_topic (expand)</title>
<path fill="none" stroke="black" d="M650.57,-287.97C622.77,-278.19 587.66,-265.84 558.35,-255.52"/>
<polygon fill="black" stroke="black" points="559.24,-252.13 548.64,-252.11 556.92,-258.73 559.24,-252.13"/>
</g>
<!-- [root] aws_volume_attachment.terra&#45;volume&#45;attachemnt (expand) -->
<g id="node7" class="node">
<title>[root] aws_volume_attachment.terra&#45;volume&#45;attachemnt (expand)</title>
<polygon fill="none" stroke="black" points="292,-324 0,-324 0,-288 292,-288 292,-324"/>
<text text-anchor="middle" x="146" y="-302.3" font-family="Times New Roman,serif" font-size="14.00">aws_volume_attachment.terra&#45;volume&#45;attachemnt</text>
</g>
<!-- [root] aws_volume_attachment.terra&#45;volume&#45;attachemnt (expand)&#45;&gt;[root] aws_ebs_volume.terra_ebs_volume (expand) -->
<g id="edge8" class="edge">
<title>[root] aws_volume_attachment.terra&#45;volume&#45;attachemnt (expand)&#45;&gt;[root] aws_ebs_volume.terra_ebs_volume (expand)</title>
<path fill="none" stroke="black" d="M165.28,-287.7C174.92,-279.05 186.73,-268.45 197.23,-259.03"/>
<polygon fill="black" stroke="black" points="199.84,-261.39 204.94,-252.1 195.16,-256.18 199.84,-261.39"/>
</g>
<!-- [root] provider[&quot;registry.terraform.io/hashicorp/aws&quot;] (close) -->
<g id="node9" class="node">
<title>[root] provider[&quot;registry.terraform.io/hashicorp/aws&quot;] (close)</title>
<ellipse fill="none" stroke="black" cx="438" cy="-378" rx="232.86" ry="18"/>
<text text-anchor="middle" x="438" y="-374.3" font-family="Times New Roman,serif" font-size="14.00">[root] provider[&quot;registry.terraform.io/hashicorp/aws&quot;] (close)</text>
</g>
<!-- [root] provider[&quot;registry.terraform.io/hashicorp/aws&quot;] (close)&#45;&gt;[root] aws_cloudwatch_metric_alarm.terra_alarm (expand) -->
<g id="edge9" class="edge">
<title>[root] provider[&quot;registry.terraform.io/hashicorp/aws&quot;] (close)&#45;&gt;[root] aws_cloudwatch_metric_alarm.terra_alarm (expand)</title>
<path fill="none" stroke="black" d="M438,-359.7C438,-351.98 438,-342.71 438,-334.11"/>
<polygon fill="black" stroke="black" points="441.5,-334.1 438,-324.1 434.5,-334.1 441.5,-334.1"/>
</g>
<!-- [root] provider[&quot;registry.terraform.io/hashicorp/aws&quot;] (close)&#45;&gt;[root] aws_sns_topic_subscription.terra&#45;sub (expand) -->
<g id="edge10" class="edge">
<title>[root] provider[&quot;registry.terraform.io/hashicorp/aws&quot;] (close)&#45;&gt;[root] aws_sns_topic_subscription.terra&#45;sub (expand)</title>
<path fill="none" stroke="black" d="M499.19,-360.59C537.05,-350.43 585.88,-337.34 625.79,-326.64"/>
<polygon fill="black" stroke="black" points="626.71,-330.01 635.47,-324.04 624.9,-323.25 626.71,-330.01"/>
</g>
<!-- [root] provider[&quot;registry.terraform.io/hashicorp/aws&quot;] (close)&#45;&gt;[root] aws_volume_attachment.terra&#45;volume&#45;attachemnt (expand) -->
<g id="edge11" class="edge">
<title>[root] provider[&quot;registry.terraform.io/hashicorp/aws&quot;] (close)&#45;&gt;[root] aws_volume_attachment.terra&#45;volume&#45;attachemnt (expand)</title>
<path fill="none" stroke="black" d="M370.28,-360.76C327.43,-350.49 271.8,-337.16 226.67,-326.34"/>
<polygon fill="black" stroke="black" points="227.46,-322.93 216.92,-324 225.83,-329.74 227.46,-322.93"/>
</g>
<!-- [root] root -->
<g id="node10" class="node">
<title>[root] root</title>
<ellipse fill="none" stroke="black" cx="438" cy="-450" rx="49.29" ry="18"/>
<text text-anchor="middle" x="438" y="-446.3" font-family="Times New Roman,serif" font-size="14.00">[root] root</text>
</g>
<!-- [root] root&#45;&gt;[root] provider[&quot;registry.terraform.io/hashicorp/aws&quot;] (close) -->
<g id="edge12" class="edge">
<title>[root] root&#45;&gt;[root] provider[&quot;registry.terraform.io/hashicorp/aws&quot;] (close)</title>
<path fill="none" stroke="black" d="M438,-431.7C438,-423.98 438,-414.71 438,-406.11"/>
<polygon fill="black" stroke="black" points="441.5,-406.1 438,-396.1 434.5,-406.1 441.5,-406.1"/>
</g>
</g>
</svg>
